<?xml version="1.0" encoding="utf-8"?>
<!-- Generator: Adobe Illustrator 24.0.2, SVG Export Plug-In . SVG Version: 6.00 Build 0)  -->
<svg version="1.1" id="Layer_1" xmlns="http://www.w3.org/2000/svg" xmlns:xlink="http://www.w3.org/1999/xlink" x="0px" y="0px"
	 viewBox="0 0 512 512" style="enable-background:new 0 0 512 512;" xml:space="preserve">
<style type="text/css">
	.st0{fill:#C1E8F7;}
	.st1{fill:none;}
	.st2{fill:#FFDDCA;}
	.st3{fill:#93AFCA;}
	.st4{fill:#FFE6D3;}
	.st5{fill:#554C44;}
	.st6{fill:#181718;}
	.st7{fill:#222223;}
	.st8{fill:#0E0E0E;}
	.st9{fill:#E0E0E0;}
	.st10{fill:#B9D4F3;}
	.st11{fill:#EAEAEA;}
</style>
<circle id="XMLID_8241_" class="st0" cx="256.0887" cy="255.7101" r="250.5917"/>
<g id="XMLID_7470_">
	<path id="XMLID_7514_" class="st1" d="M331.5753,203.1672c1.8669-9.9254,2.9394-18.3628,3.5252-23.9942
		c-1.4306,0.5638-2.9849,1.1261-4.6528,1.6866c-0.389,7.9205-1.3851,15.4662-3.5532,20.2771
		C328.7313,200.318,330.4443,201.0875,331.5753,203.1672z"/>
	<path id="XMLID_7513_" class="st1" d="M318.0282,233.2702c-2.907-2.0764-3.4242,20.8956-11.1506,37.7138
		c7.4484-11.2084,12.9933-24.4056,17.1394-37.4556C322.2465,234.6437,320.2473,234.7622,318.0282,233.2702z"/>
	<path id="XMLID_7512_" class="st1" d="M187.6687,200.7819c-1.3218-4.5414-2.6875-12.4292-3.8811-20.2242
		c-1.4321-0.4878-2.7602-0.9756-4.0108-1.4649c0.6145,5.9243,1.7801,15.0131,3.8423,25.6573
		C184.4434,202.1264,185.9292,200.6873,187.6687,200.7819z"/>
	<path id="XMLID_7511_" class="st1" d="M197.8109,233.2702c-2.7717,1.8632-5.204,1.2334-7.2658-0.7587
		c4.8414,15.5024,11.6563,31.2887,21.2538,43.7745C201.3186,259.5442,201.0395,230.9646,197.8109,233.2702z"/>
	<path id="XMLID_7510_" class="st2" d="M238.9318,297.3292c-3.871-1.5193-7.5479-3.5043-11.0057-5.8099
		c-3.1474-2.0999-6.0648-4.5124-8.8775-7.0415c7.8114,7.6601,17.1495,13.148,28.2487,15.2643
		C244.4507,299.1526,241.6395,298.3935,238.9318,297.3292z"/>
	<path id="XMLID_7509_" class="st2" d="M220.5515,302.402c0.4241,0.2292,1.0758,0.477,1.8297,0.7334
		c2.3223-0.2784,5.6169,0.8079,8.5447,2.076c4.0082,1.7343,10.0674,2.7568,16.6453,3.2897
		c0.1353-0.0909,0.2668-0.2001,0.4047-0.2802c0,0,13.5713-0.8567,23.5314-0.1181c0.3913,0.0291,0.7565,0.1874,1.1027,0.4349
		c4.4896-0.3294,7.9697-0.8042,9.4637-1.3083c3.9031-1.3136,7.252-4.3741,9.5751-4.0939c0.7524-0.2564,1.4045-0.5042,1.8278-0.7334
		c4.3424-2.3525,6.2366-4.5671,8.5354-3.075c-1.3717-3.9355-2.2705-7.7622-2.8246-11.3228
		c-11.9463,11.7852-25.9752,17.9097-41.7433,17.9115h-0.0011h-0.0007c-16.0058-0.0019-30.2211-6.3066-42.2832-18.4429
		c-0.5437,3.6426-1.4343,7.571-2.8343,11.6269C214.4927,297.9843,216.4007,300.1531,220.5515,302.402z"/>
	<path id="XMLID_7508_" class="st3" d="M232.3666,378.4192c0-0.6585,0.0049-1.352,0.0138-2.0667
		c-2.3786,3.368-3.8647,6.7795-3.5569,10.0364c0.7676,8.1352-14.0125-6.2828-26.0825-23.4486
		c5.6989,11.0228,15.4081,37.6121,25.3592,67.56C226.7464,420.9677,232.3666,395.5851,232.3666,378.4192z"/>
	<path id="XMLID_7507_" class="st3" d="M322.4265,344.2153c-10.5164,22.5588-38.2668,53.2457-37.2216,42.1736
		c0.4002-4.2451-2.2318-8.7501-5.94-13.0791c0.755,6.0301,1.8815,11.8419,3.5644,16.3397
		c4.7166,12.5987,6.6789,39.3713,2.1699,43.6202c-6.7259,6.3357-51.2773,5.9735-55.9078,0.2217
		c8.0856,24.4749,16.2406,50.8768,22.4544,72.6951c1.517,0.0272,3.0195,0.1144,4.5429,0.1144c2.6648,0,5.3009-0.1181,7.9455-0.2001
		c12.7981-48.2619,39.8074-131.71,49.577-146.1064C317.9112,353.6588,320.6688,348.4642,322.4265,344.2153z"/>
	<path id="XMLID_7506_" class="st4" d="M238.9318,297.3292c2.7076,1.0643,5.5189,1.8234,8.3655,2.4129
		c3.2413,0.6167,6.5932,1.0226,10.1456,1.0226c22.058,0,37.9728-12.5331,49.4346-29.7806
		c7.7264-16.8182,8.2436-39.7902,11.1506-37.7138c2.2191,1.4921,4.2183,1.3736,5.9888,0.2582
		c3.3706-10.6099,5.817-21.1032,7.5583-30.3612c-1.131-2.0797-2.844-2.8492-4.6808-2.0305
		c-0.9536,2.1163-2.1267,3.7194-3.5841,4.5671c0,0-5.217,21.5653-7.4532,20.8904c-2.2098-0.6659-1.2812-19.6987,2.1207-42.1427
		c-16.8976,4.2012-39.2607,7.5147-60.5349,7.5147c-21.3823,0-44.5287-3.5301-61.7565-7.9261
		c0.1055,14.8551,5.5837,38.2963,3.1559,39.3933c-2.9812,1.3482-6.7076-15.7081-9.6891-19.0779
		c-0.4792-0.5422-0.9786-1.836-1.4846-3.5737c-1.7395-0.0947-3.2252,1.3445-4.0495,3.9683
		c1.6598,8.5686,3.9068,18.0937,6.926,27.7612c2.0618,1.9922,4.4941,2.6219,7.2658,0.7587
		c3.2286-2.3056,3.5077,26.274,13.9879,43.0158c2.256,2.9349,4.6778,5.6679,7.2498,8.1918
		c2.8127,2.5291,5.7301,4.9417,8.8775,7.0415C231.3839,293.8249,235.0608,295.8099,238.9318,297.3292z"/>
	<path id="XMLID_7505_" class="st5" d="M176.9112,134.9342c0.3987-1.7194,0.8291-3.4499,1.3005-5.1894
		C175.1612,130.8858,176.1323,132.7415,176.9112,134.9342z"/>
	<path id="XMLID_7504_" class="st5" d="M174.6406,146.8033c0.2814-1.8543,0.6119-3.7466,0.9726-5.659
		C173.8566,142.8275,173.8477,144.6852,174.6406,146.8033z"/>
	<path id="XMLID_7503_" class="st5" d="M189.1533,204.3556c2.9815,3.3698,6.708,20.4261,9.6891,19.0779
		c2.4278-1.0971-3.0505-24.5383-3.1559-39.3933c-4.3901-1.119-8.4072-2.2925-11.8989-3.4824
		c1.1936,7.795,2.5593,15.6827,3.8811,20.2242C188.1747,202.5196,188.6741,203.8134,189.1533,204.3556z"/>
	<path id="XMLID_7502_" class="st5" d="M315.8572,226.5942c2.2362,0.6749,7.4532-20.8904,7.4532-20.8904
		c1.4574-0.8478,2.6305-2.4509,3.5841-4.5671c2.168-4.8108,3.1641-12.3565,3.5532-20.2771
		c-3.6624,1.232-7.8583,2.4438-12.4698,3.5919C314.576,206.8955,313.6474,225.9283,315.8572,226.5942z"/>
	<path id="XMLID_7501_" class="st6" d="M377.1788,460.5541c1.0125-17.104-2.42-57.107,1.8044-80.4718
		c3.8371-21.2251,7.5431-28.3523,8.1914-29.484c-3.6266-1.4157-9.189-3.4045-17.3559-6.7214
		c-13.3664-5.4313-24.2073-12.1728-31.4023-13.2427c2.8153,2.5657,5.6832,5.7007,7.8672,9.6071
		c7.4466,13.3246,7.8513,21.4945,13.1137,25.4136c5.2625,3.9176-41.0483,6.9655-41.0483,6.9655l29.1717,22.0203
		c0,0-25.0942,34.1637-38.5322,54.1642c-4.7229,7.0307-16.551,27.3242-23.1554,38.9003
		c-1.9012,3.3333-5.9113,10.1859-10.3856,17.7789c36.6265-2.8023,71.0536-13.4282,101.5847-30.2881
		C376.9913,468.225,377.026,463.1306,377.1788,460.5541z"/>
	<path id="XMLID_7500_" class="st7" d="M205.3477,448.2483c-13.4383-19.9987-38.5329-54.1642-38.5329-54.1642l29.1725-22.0203
		c0,0-46.3111-3.0479-41.0486-6.9673c5.2636-3.9154,5.6672-12.0871,13.1137-25.4099c1.7794-3.1842,4.0193-5.8591,6.3096-8.1371
		c-7.0113,2.2526-16.4727,7.7421-27.7586,12.3275c-7.1279,2.8951-12.9181,5.2912-17.414,7.3582
		c0.5087,0.8608,4.3096,7.8222,8.2418,29.5678c4.2232,23.3648,0.79,63.3678,1.804,80.4733
		c0.1636,2.7639,0.193,8.4046,0.1364,16.1776c29.9513,15.7994,63.4826,25.6812,99.0694,28.1596
		c-4.4952-8.4627-8.3014-15.5955-9.938-18.463C221.8998,475.5724,210.072,455.279,205.3477,448.2483z"/>
	<path id="XMLID_7495_" class="st8" d="M139.235,461.2763c-1.014-17.1055,2.4192-57.1085-1.804-80.4733
		c-3.9321-21.7457-7.7331-28.707-8.2418-29.5678c-0.0373-0.0656-0.0615-0.1036-0.0615-0.1036
		c-10.5592,3.0877-24.277-1.3009-34.3798,11.5561c-5.9452,7.5621-17.5214,27.5425-28.5781,56.4042
		c20.4492,23.7486,45.2506,43.6203,73.2015,58.3621C139.428,469.6809,139.3986,464.0402,139.235,461.2763z M100.3313,398.811
		c-0.9633,0.8534-2.4017,1.1936-3.4145,0.4185c1.6422-9.5617,5.975-18.5174,12.2227-25.2645
		c6.1848-6.6759,14.2186-11.1465,22.6873-12.6494c0.1819-0.1509,0.3637-0.2966,0.5455-0.4457l-0.2854,0.3894
		c-0.0876,0.0145-0.1729,0.0399-0.2601,0.0563c-5.1458,4.2269-10.3092,8.2679-15.3444,12.8022
		c-6.0592,5.457-10.2678,13.7577-13.998,21.3816C101.8941,396.706,101.2938,397.9596,100.3313,398.811z M109.4406,432.4709
		c-0.1435,1.8561,0.0947,5.2278-1.0907,4.9603c-1.8669-0.4185-1.8174-6.3539-1.8241-8.4937
		c-0.0194-5.9064,0.3876-9.6873,0.733-13.7979c0.4744-5.653,0.6935-7.5583,1.4231-11.8397
		c0.7442-4.3689,3.3687-10.8518,5.1444-14.8257c2.4759-5.5405,4.5787-9.0452,8.1773-13.5959c0.3961-0.5019,0.8254-1.0259,1.4-1.2062
		c0.4274-0.1345-0.9286,1.4447-0.9089,1.4213c-0.6689,0.8168-1.5908,1.7883-2.1438,2.7147
		c-1.1019,1.845-2.3942,4.3048-3.0359,6.3994c-1.1183,3.6501-1.3657,5.3732-2.8459,8.8555
		c-0.6011,1.4138-1.463,5.4622-0.6428,4.7508c4.1364-6.01,4.3685-13.6138,9.3057-18.8051
		c-6.7061,13.7234-4.8038,18.5413-10.7284,36.9879C111.17,419.836,109.7256,428.7918,109.4406,432.4709z M126.4339,394.1258
		c-0.5444,2.7255-0.9011,5.5259-1.8774,8.0949c-0.1546,0.4058-0.4192,0.8698-0.8098,0.8318
		c-0.4647-0.0455-0.6067-0.7259-0.6152-1.2502c-0.1707-10.0603,3.596-20.0859,10.0424-27.0547
		c0.1897-0.373,0.3753-0.7498,0.616-1.0844c-0.1118,0.2582-0.221,0.5094-0.3328,0.7658c0.171-0.18,0.3216-0.382,0.496-0.5586
		l-1.5196,2.9133C129.9923,382.3823,127.6893,387.8355,126.4339,394.1258z"/>
	<path id="XMLID_7494_" d="M116.4824,374.1178c5.0352-4.5343,10.1985-8.5753,15.3444-12.8022
		c-8.4687,1.5029-16.5025,5.9735-22.6873,12.6494c-6.2478,6.7471-10.5805,15.7029-12.2227,25.2645
		c1.0128,0.7751,2.4513,0.4349,3.4145-0.4185c0.9625-0.8515,1.5629-2.105,2.1531-3.3117
		C106.2146,387.8754,110.4232,379.5748,116.4824,374.1178z"/>
	<path id="XMLID_7493_" d="M132.3723,360.8699c-0.1818,0.149-0.3637,0.2948-0.5455,0.4457
		c0.0872-0.0164,0.1725-0.0417,0.2601-0.0563L132.3723,360.8699z"/>
	<path id="XMLID_7492_" d="M133.4571,374.4289c0.1118-0.2564,0.221-0.5075,0.3328-0.7658c-0.2407,0.3346-0.4263,0.7114-0.616,1.0844
		c-6.4464,6.9688-10.2131,16.9944-10.0424,27.0547c0.0086,0.5243,0.1505,1.2047,0.6152,1.2502
		c0.3905,0.038,0.6551-0.4259,0.8098-0.8318c0.9763-2.569,1.3329-5.3694,1.8774-8.0949c1.2554-6.2903,3.5584-11.7435,5.9996-17.3421
		l1.5196-2.9133C133.7787,374.047,133.6282,374.2489,133.4571,374.4289z"/>
	<path id="XMLID_7491_" d="M123.1319,379.0087c-4.9372,5.1913-5.1693,12.7951-9.3057,18.8051
		c-0.8202,0.7114,0.0417-3.337,0.6428-4.7508c1.4801-3.4824,1.7276-5.2055,2.8459-8.8555c0.6417-2.0946,1.934-4.5544,3.0359-6.3994
		c0.553-0.9264,1.4749-1.8979,2.1438-2.7147c-0.0197,0.0235,1.3363-1.5558,0.9089-1.4213c-0.5746,0.1804-1.0039,0.7043-1.4,1.2062
		c-3.5986,4.5508-5.7015,8.0555-8.1773,13.5959c-1.7757,3.9739-4.4002,10.4568-5.1444,14.8257
		c-0.7296,4.2813-0.9487,6.1866-1.4231,11.8397c-0.3454,4.1106-0.7524,7.8915-0.733,13.7979
		c0.0067,2.1397-0.0429,8.0752,1.8241,8.4937c1.1854,0.2675,0.9473-3.1041,1.0907-4.9603
		c0.2851-3.6791,1.7294-12.6349,2.9629-16.4742C118.3281,397.55,116.4258,392.7321,123.1319,379.0087z"/>
	<path id="XMLID_7486_" class="st8" d="M387.2845,350.4109c0,0-0.0447,0.0745-0.11,0.1874
		c-0.6484,1.1317-4.3543,8.2589-8.1914,29.484c-4.2243,23.3648-0.7919,63.3678-1.8044,80.4718
		c-0.1528,2.5764-0.1874,7.6709-0.1465,14.6419c27.6409-15.2643,52.102-35.5741,72.1089-59.7215
		c-10.7165-27.3208-21.7285-46.1967-27.4754-53.5076C411.5619,349.11,397.8441,353.4986,387.2845,350.4109z M392.6666,403.0525
		c-0.3909,0.038-0.6559-0.4259-0.8098-0.8318c-0.9771-2.569-1.3337-5.3694-1.8777-8.0949
		c-1.2554-6.2903-3.558-11.7435-5.9992-17.3421l-1.52-2.9133c0.1748,0.1748,0.325,0.3786,0.496,0.5586
		c-0.1122-0.2564-0.2213-0.5075-0.3332-0.7658c0.2411,0.3346,0.4267,0.7114,0.616,1.0844
		c6.4471,6.9688,10.2131,16.9944,10.0431,27.0547C393.2725,402.3266,393.1306,403.007,392.6666,403.0525z M408.0639,437.4312
		c-1.1865,0.2675-0.948-3.1041-1.0919-4.9603c-0.284-3.6791-1.7287-12.6349-2.9622-16.4742
		c-5.9254-18.4466-4.0223-23.2646-10.7292-36.9879c4.9375,5.1913,5.1704,12.7951,9.306,18.8051
		c0.8198,0.7114-0.0417-3.337-0.6421-4.7508c-1.4813-3.4824-1.7287-5.2055-2.8466-8.8555
		c-0.6417-2.0946-1.9344-4.5544-3.0359-6.3994c-0.5534-0.9264-1.4749-1.8979-2.1434-2.7147
		c0.019,0.0235-1.3367-1.5558-0.9089-1.4213c0.5739,0.1804,1.0035,0.7043,1.4,1.2062c3.599,4.5508,5.7007,8.0555,8.1769,13.5959
		c1.776,3.9739,4.3998,10.4568,5.144,14.8257c0.7296,4.2813,0.9499,6.1866,1.4239,11.8397
		c0.3447,4.1106,0.7523,7.8915,0.7322,13.7979C409.8805,431.0772,409.9297,437.0127,408.0639,437.4312z M416.0825,398.811
		c-0.9633-0.8515-1.5629-2.105-2.1543-3.3117c-3.729-7.6239-7.9388-15.9246-13.998-21.3816
		c-5.0344-4.5343-10.1974-8.5753-15.344-12.8022c-0.0876-0.0164-0.1729-0.0417-0.2605-0.0563l-0.2855-0.3894
		c0.1819,0.149,0.3637,0.2948,0.5459,0.4457c8.4691,1.5029,16.5022,5.9735,22.687,12.6494
		c6.2485,6.7471,10.5809,15.7029,12.2227,25.2645C418.4834,400.0046,417.045,399.6644,416.0825,398.811z"/>
	<path id="XMLID_7485_" d="M384.5862,361.3156c5.1466,4.2269,10.3096,8.2679,15.344,12.8022
		c6.0592,5.457,10.269,13.7577,13.998,21.3816c0.5914,1.2066,1.191,2.4602,2.1543,3.3117c0.9625,0.8534,2.4009,1.1936,3.4134,0.4185
		c-1.6419-9.5617-5.9742-18.5174-12.2227-25.2645C401.0884,367.2891,393.0553,362.8185,384.5862,361.3156z"/>
	<path id="XMLID_7484_" d="M384.3257,361.2593c0.0876,0.0145,0.1729,0.0399,0.2605,0.0563
		c-0.1822-0.1509-0.3641-0.2966-0.5459-0.4457L384.3257,361.2593z"/>
	<path id="XMLID_7483_" d="M382.6227,373.6631c0.1118,0.2582,0.221,0.5094,0.3332,0.7658c-0.1711-0.18-0.3212-0.3838-0.496-0.5586
		l1.52,2.9133c2.4412,5.5986,4.7438,11.0519,5.9992,17.3421c0.5441,2.7255,0.9007,5.5259,1.8777,8.0949
		c0.1539,0.4058,0.4189,0.8698,0.8098,0.8318c0.464-0.0455,0.6059-0.7259,0.6152-1.2502c0.17-10.0603-3.596-20.0859-10.0431-27.0547
		C383.0494,374.3745,382.8638,373.9978,382.6227,373.6631z"/>
	<path id="XMLID_7482_" d="M407.7307,403.2999c-0.7442-4.3689-3.368-10.8518-5.144-14.8257
		c-2.4762-5.5405-4.5779-9.0452-8.1769-13.5959c-0.3965-0.5019-0.8262-1.0259-1.4-1.2062
		c-0.4278-0.1345,0.9279,1.4447,0.9089,1.4213c0.6685,0.8168,1.5901,1.7883,2.1434,2.7147c1.1015,1.845,2.3943,4.3048,3.0359,6.3994
		c1.1179,3.6501,1.3654,5.3732,2.8466,8.8555c0.6003,1.4138,1.4619,5.4622,0.6421,4.7508c-4.1356-6.01-4.3685-13.6138-9.306-18.8051
		c6.7068,13.7234,4.8037,18.5413,10.7292,36.9879c1.2335,3.8394,2.6782,12.7951,2.9622,16.4742
		c0.1438,1.8561-0.0946,5.2278,1.0919,4.9603c1.8658-0.4185,1.8166-6.3539,1.823-8.4937c0.0201-5.9064-0.3875-9.6873-0.7322-13.7979
		C408.6806,409.4866,408.4604,407.5812,407.7307,403.2999z"/>
	<path id="XMLID_7479_" class="st8" d="M257.4429,305.9157h0.0011c15.7681-0.0019,29.797-6.1263,41.7433-17.9115
		c10.4959-10.3535,19.3902-25.0626,26.3772-44.0078c9.6776-26.2491,13.3999-54.0282,14.4034-66.9761
		c3.6501-1.8521,5.7324-3.6281,5.7324-5.1473c0-3.6918,0.6577-4.4669-3.691-3.2878c-4.1255,1.1205-12.7563,3.9974-30.7793,7.8311
		c-16.0587,3.4153-53.7871,3.1134-53.7871,3.1134s-37.7283,0.3018-53.7867-3.1134c-18.0226-3.8338-26.6526-6.7106-30.7789-7.8311
		c-4.3495-1.179-3.6914-0.4039-3.6914,3.2878c0,1.5029,2.0879,3.2551,5.7268,5.0836c0.9972,12.9225,4.7162,40.7509,14.409,67.0398
		c6.8671,18.6214,15.5754,33.1504,25.8373,43.4764c12.0621,12.1363,26.2774,18.441,42.2832,18.4429H257.4429z M219.0487,284.4778
		c-2.572-2.5239-4.9938-5.2569-7.2498-8.1918c-9.5975-12.4858-16.4124-28.2721-21.2538-43.7745
		c-3.0192-9.6675-5.2662-19.1927-6.926-27.7612c-2.0622-10.6442-3.2278-19.733-3.8423-25.6573
		c1.2506,0.4893,2.5787,0.9771,4.0108,1.4649c3.4917,1.1898,7.5088,2.3633,11.8989,3.4824
		c17.2277,4.3961,40.3741,7.9261,61.7565,7.9261c21.2743,0,43.6374-3.3136,60.5349-7.5147c4.6115-1.1481,8.8075-2.36,12.4698-3.5919
		c1.6679-0.5605,3.2223-1.1228,4.6528-1.6866c-0.5858,5.6314-1.6583,14.0688-3.5252,23.9942
		c-1.7414,9.258-4.1878,19.7513-7.5583,30.3612c-4.1461,13.05-9.691,26.2472-17.1394,37.4556
		c-11.4618,17.2475-27.3767,29.7806-49.4346,29.7806c-3.5524,0-6.9043-0.4058-10.1456-1.0226
		C236.1981,297.6258,226.86,292.1379,219.0487,284.4778z"/>
	<path id="XMLID_7478_" class="st7" d="M203.6562,176.4162c16.0584,3.4153,53.7867,3.1134,53.7867,3.1134
		s37.7284,0.3018,53.7871-3.1134c18.0229-3.8338,26.6537-6.7106,30.7793-7.8311c-0.1681-33.2104-13.0306-105.8999-84.5664-105.8999
		c-48.8268,0-70.4573,34.666-79.2312,67.0596c-0.4714,1.7395-0.9018,3.4701-1.3005,5.1894
		c-0.4859,2.0943-0.9111,4.1632-1.2979,6.2101c-0.3607,1.9124-0.6913,3.8047-0.9726,5.659
		c-1.2353,8.146-1.7302,15.6335-1.7634,21.7818C177.0036,169.7056,185.6337,172.5824,203.6562,176.4162z"/>
	<path id="XMLID_7477_" class="st9" d="M235.9831,337.0065c2.3678-13.2445,6.0711-24.8479,11.5881-28.5054
		c-6.5779-0.5329-12.6371-1.5554-16.6453-3.2897c-2.9279-1.2681-6.2224-2.3543-8.5447-2.076
		c-0.7539-0.2564-1.4056-0.5042-1.8297-0.7334c-4.1509-2.2489-6.0588-4.4177-8.2269-3.3024
		c-0.7021,0.3622-1.4298,1.0572-2.272,2.218c-1.542,2.1289-3.0587,4.5872-4.2507,7.2747
		C209.3044,310.1098,216.8497,320.3866,235.9831,337.0065z"/>
	<path id="XMLID_7476_" class="st9" d="M293.4765,302.402c-0.4233,0.2292-1.0754,0.477-1.8278,0.7334
		c-2.3231-0.2802-5.672,2.7803-9.5751,4.0939c-1.4939,0.5042-4.9741,0.9789-9.4637,1.3083
		c3.8166,2.7292,4.9651,17.9335,5.2181,28.6545c18.6073-16.1359,26.3426-26.3582,30.0184-28.4272
		c-0.9581-2.7546-2.297-5.2748-3.871-7.4473c-0.7214-0.9953-1.3534-1.5938-1.9635-1.9907
		C299.7131,297.8349,297.8189,300.0495,293.4765,302.402z"/>
	<path id="XMLID_7475_" class="st10" d="M189.9958,327.6904c-0.8824,1.9594-3.6635,10.5406,10.7288,31.7474
		c0.597,0.8806,1.2748,2.067,2.0164,3.5025c12.07,17.1659,26.8501,31.5838,26.0825,23.4486
		c-0.3078-3.2569,1.1783-6.6685,3.5569-10.0364c0.1241-10.1389,1.1474-25.6085,3.6027-39.346
		c-19.1334-16.6199-26.6787-26.8967-30.1812-28.4141c-0.9186-0.3987-1.5815-0.2385-2.0857,0.6149
		c-3.4779,5.8844-7.059,9.9-9.9701,12.8495C192.462,323.6036,190.8913,325.7016,189.9958,327.6904z"/>
	<path id="XMLID_7474_" class="st10" d="M277.8281,337.1921c0.0723,3.0639,0.076,5.7786,0.0432,7.7055
		c-0.1021,5.9702,0.0343,17.5515,1.3937,28.4123c3.7082,4.329,6.3402,8.8339,5.94,13.0791
		c-1.0453,11.072,26.7052-19.6149,37.2216-42.1736c4.1267-9.9745,2.6421-14.649,1.9131-15.9682
		c-2.1572-3.9102-6.2604-8.2899-6.2604-8.2899s0.0831-0.0276,0.1569-0.0529c-2.4673-2.7039-5.2297-6.1393-7.9243-10.6971
		c-0.572-0.9681-1.3356-1.0792-2.4654-0.4423C304.1707,310.8338,296.4353,321.0562,277.8281,337.1921z"/>
	<path id="XMLID_7473_" d="M308.9886,448.805c13.4379-20.0005,38.5322-54.1642,38.5322-54.1642l-29.1717-22.0203
		c0,0,46.3108-3.0479,41.0483-6.9655c-5.2625-3.9191-5.6672-12.089-13.1137-25.4136c-2.1841-3.9064-5.0519-7.0415-7.8672-9.6071
		c-3.631-3.308-7.1712-5.6459-9.0165-7.211c-5.8934-5.0016-10.4031-3.7771-11.1637-3.5189
		c-0.0738,0.0254-0.1569,0.0529-0.1569,0.0529s4.1032,4.3797,6.2604,8.2899c0.7289,1.3192,2.2135,5.9936-1.9131,15.9682
		c-1.7578,4.2489-4.5153,9.4435-8.8153,15.7793c-9.7696,14.3964-36.7789,97.8445-49.577,146.1064
		c3.8274-0.12,7.6303-0.3275,11.4134-0.6167c4.4743-7.593,8.4843-14.4456,10.3856-17.7789
		C292.4376,476.1292,304.2657,455.8357,308.9886,448.805z"/>
	<path id="XMLID_7472_" d="M228.9025,433.2698c-0.392-0.6462-0.6387-1.6139-0.8023-2.7695
		c-9.9511-29.9479-19.6603-56.5372-25.3592-67.56c-0.7416-1.4354-1.4194-2.6219-2.0164-3.5025
		c-14.3923-21.2068-11.6112-29.7881-10.7288-31.7474c0.8955-1.9888,2.4662-4.0868,3.7503-5.6336
		c1.1302-1.3609,2.0413-2.2996,2.0413-2.2996s-4.3849-2.3782-10.8499,3.1075c-2.1107,1.7924-6.43,4.5634-10.5756,8.6848
		c-2.2903,2.278-4.5302,4.9528-6.3096,8.1371c-7.4465,13.3228-7.8501,21.4945-13.1137,25.4099
		c-5.2625,3.9195,41.0486,6.9673,41.0486,6.9673l-29.1725,22.0203c0,0,25.0946,34.1655,38.5329,54.1642
		c4.7244,7.0307,16.5521,27.3242,23.155,38.9022c1.6366,2.8675,5.4428,10.0003,9.938,18.463
		c4.3394,0.3037,8.7072,0.4949,13.1051,0.5731c-6.2139-21.8183-14.3688-48.2202-22.4544-72.6951
		C229.0311,433.417,228.9487,433.3462,228.9025,433.2698z"/>
	<path id="XMLID_7471_" class="st11" d="M277.8713,344.8976c0.0328-1.9269,0.0291-4.6417-0.0432-7.7055
		c-0.253-10.721-1.4015-25.9252-5.2181-28.6545c-0.3462-0.2474-0.7114-0.4058-1.1027-0.4349
		c-9.9601-0.7386-23.5314,0.1181-23.5314,0.1181c-0.1379,0.0801-0.2694,0.1893-0.4047,0.2802
		c-5.517,3.6575-9.2203,15.2609-11.5881,28.5054c-2.4554,13.7375-3.4786,29.2071-3.6027,39.346
		c-0.0089,0.7148-0.0138,1.4082-0.0138,2.0667c0,17.1658-5.6202,42.5485-4.2664,52.0811c0.1636,1.1556,0.4103,2.1233,0.8023,2.7695
		c0.0462,0.0764,0.1286,0.1472,0.1889,0.2217c4.6305,5.7518,49.1819,6.114,55.9078-0.2217
		c4.509-4.2489,2.5467-31.0215-2.1699-43.6202c-1.6829-4.4978-2.8094-10.3096-3.5644-16.3397
		C277.9056,362.4492,277.7692,350.8678,277.8713,344.8976z"/>
</g>
</svg>
